<svg version="1" xmlns="http://www.w3.org/2000/svg" width="682.667" height="682.667" viewBox="0 0 512 512"><path d="M237.9.4c-.2.2-3.5.6-7.4.9-39.4 3.4-81.7 18.6-117 42.1C87 61 59.9 88.1 42.8 114.1c-19.5 29.6-33 63-38.8 95.9C.2 231.1.2 234.5.1 374.8L0 512h96v-56.2l4.3 3.2c22.2 16.7 49.4 31.2 73.9 39.3 10.2 3.4 27.8 8 34.3 9 1.7.3 4.1.7 5.5 1.1 2.7.6 7.7 1.2 18 2.3 8.6.9 39.5 1 49 .1 8.5-.8 28.8-4.3 34-5.8 1.9-.6 4.8-1.3 6.4-1.6 6.9-1.2 31.1-10.1 43.3-15.9 7.2-3.5 18.1-9.3 24.2-13 10.2-6.1 31.2-21.6 36.5-26.8 1.2-1.2 3.8-3.6 5.7-5.3 9.2-8.3 21.3-21.9 30.7-34.6 22.5-30.4 39.8-69.9 45.8-104.8.4-2.5.8-4.7.9-5 .1-.3.5-3.4.9-7 .5-3.6 1.1-7.4 1.4-8.5.3-1.1.8-65.1.9-142.3L512.1 0H416v56.2l-4.7-3.6c-18.1-13.6-37-24.4-59.8-34.2-14.8-6.3-42.9-13.7-60.2-15.9-2.6-.4-5.9-.9-7.3-1.1-3-.6-45.5-1.5-46.1-1zM278 97.3c1.4.4 4.2.9 6.2 1.2 5.3.7 18.1 4.2 26.1 7.1 41.2 14.7 74.6 46.3 92.4 87.4 9 20.7 12.7 39.3 12.8 63.5 0 25.7-4.8 46.7-15.8 69.5-19.1 39.5-55.3 70.3-97.1 82.9-3.7 1.2-7.8 2.3-9 2.5-1.1.2-3.9.9-6.1 1.4-7.1 1.9-16.6 2.7-32.5 2.6-18 0-23.7-.6-36.7-3.9-47.5-12.1-85.5-42.8-106.3-86-4.3-8.8-10.2-25-11.4-30.9-2.1-10.2-2.8-13.8-3.4-18.6-.9-7.2-.9-36.2 0-42 .7-4.2 1-6 2.3-12 .3-1.4.7-3.4.9-4.5 1.1-5.5 6.2-19.7 10.2-28.2 8.1-17.5 17.9-31.6 31.3-45.3 23.3-23.7 50.6-38.3 85.5-45.5 1-.3 4.4-.7 7.5-1.1 3.1-.3 5.7-.7 5.9-.9.6-.5 34.7.2 37.2.8z"/><path d="M241.1 177.6c-20.5 4.3-34.8 13.2-48.7 30-1.9 2.3-3.4 4.4-3.4 4.8 0 .5-.9 1.9-2 3.3-2.8 3.5-7.9 17.5-9.5 25.7-1.9 9.8-1.2 26.2 1.5 35.6 2.5 8.9 8.5 21.3 13.2 27.1 12.5 15.9 29.6 26.6 48.3 30.5 1.7.3 7.5.7 13 .9 20.1.7 36.9-4.8 52.4-17.3 7.3-5.9 11.3-10.3 16.5-18.2 5.4-8.2 7.9-13.7 10.8-23.6 3.1-11 3.1-29.5 0-40.6-7.8-27.8-27.6-48.2-54.7-56.4-10.7-3.2-27-4-37.4-1.8z"/></svg>