<svg data-name="Layer 1" xmlns="http://www.w3.org/2000/svg" xmlns:xlink="http://www.w3.org/1999/xlink" viewBox="0 0 80 80"><defs><linearGradient id="a" x1="80" y1="40" x2="15" y2="40" gradientUnits="userSpaceOnUse"><stop offset="0" stop-color="#ff7300"/><stop offset=".32" stop-color="#fd7c09"/><stop offset=".8" stop-color="#f7931e"/><stop offset="1" stop-color="#f7931e"/></linearGradient><linearGradient id="b" x2="65" y2="40" xlink:href="#a"/><linearGradient id="c" x1="27.5" x2="52.5" y2="40" xlink:href="#a"/></defs><circle cx="40" cy="40" r="25" fill="none"/><path d="M65 0v40a25 25 0 0 1-50 0v31.21A40 40 0 0 0 80 40V0z" fill="url(#a)"/><path d="M40 0A40 40 0 0 0 0 40v40h15V40a25 25 0 0 1 50 0V8.79A39.79 39.79 0 0 0 40 0z" fill="url(#b)"/><circle cx="40" cy="40" r="12.5" fill="url(#c)"/></svg>