<svg xmlns="http://www.w3.org/2000/svg" viewBox="0 0 227.823 26"><defs><style>.a{fill:#fff}</style></defs><path class="a" d="M0 25.569h9.8c7.9 0 13.359-5.494 13.359-12.569v-.068C23.159 5.857 17.7.432 9.8.432H0zm5.53-4.992V5.423h4.273A7.22 7.22 0 0 1 17.38 13v.072a7.163 7.163 0 0 1-7.577 7.506zm30.884 5.387c6.752 0 11.025-3.732 11.025-11.348V.432h-5.53v14.4c0 3.986-2.047 6.033-5.423 6.033s-5.423-2.119-5.423-6.213V.432h-5.53v14.365c0 7.396 4.13 11.167 10.881 11.167zm14.508-.4h18.064v-5.023H56.453V.432h-5.53zM81.34 26a12.849 12.849 0 0 0 10.306-4.489l-3.519-3.555c-1.975 1.8-3.735 2.945-6.608 2.945-4.309 0-7.29-3.591-7.29-7.9v-.069c0-4.309 3.052-7.829 7.29-7.829a9.277 9.277 0 0 1 6.429 2.829l3.519-4.058a12.97 12.97 0 0 0-9.912-3.878 12.776 12.776 0 0 0-13.108 13v.072A12.689 12.689 0 0 0 81.34 26zm12.82-.431h5.53V.432h-5.53zm9.66 0h19.141v-4.92h-13.646V15.37h11.851v-4.92h-11.851v-5.1h13.467V.432H103.82zm36.378 0h5.53V5.532h7.648v-5.1H132.55v5.1h7.649zm15.262 0h5.53v-8.044h4.345l5.387 8.044h6.464l-6.141-8.978a7.807 7.807 0 0 0 5.387-7.793v-.072a7.891 7.891 0 0 0-2.155-5.746c-1.652-1.652-4.13-2.55-7.326-2.55h-11.49zm5.53-12.928V5.423h5.494c2.693 0 4.345 1.221 4.345 3.591v.072c0 2.119-1.544 3.555-4.238 3.555zm16.126 12.928h5.638l2.3-5.638h10.63l2.292 5.638h5.782L192.989.251h-5.1zm9.912-10.522l3.34-8.152 3.34 8.152zm18.458 10.522h5.459V9.588l12.174 15.981h4.7V.432h-5.459v15.477L210.586.432h-5.1z"/></svg>