<svg xmlns="http://www.w3.org/2000/svg" viewBox="0 0 275.408 40"><title>Dulcie Tran</title><g fill="#fff"><path d="M32.5 0v20a12.5 12.5 0 1 1-25 0v15.6A20 20 0 0 0 40 20V0z"/><path d="M20 0A20 20 0 0 0 0 20v20h7.5V20a12.5 12.5 0 0 1 25 0V4.395A19.9 19.9 0 0 0 20 0z"/><circle cx="6.25" cy="6.25" r="6.25" transform="translate(13.75 13.75)"/></g><path fill="#fff" d="M47.024 33h9.828c7.92 0 13.392-5.508 13.392-12.6v-.072c0-7.092-5.472-12.528-13.392-12.528h-9.828zm5.544-5V12.8h4.284a7.238 7.238 0 0 1 7.6 7.6v.072a7.181 7.181 0 0 1-7.6 7.528zm30.96 5.4c6.772 0 11.052-3.748 11.052-11.38V7.8h-5.544v14.436c0 4-2.052 6.048-5.436 6.048s-5.436-2.124-5.436-6.228V7.8H72.62v14.4c0 7.416 4.14 11.2 10.908 11.2zm14.544-.4h18.108v-5.04h-12.564V7.8h-5.544zm30.492.432a12.881 12.881 0 0 0 10.336-4.5l-3.532-3.564c-1.98 1.8-3.744 2.952-6.624 2.952-4.32 0-7.308-3.6-7.308-7.92v-.072c0-4.32 3.06-7.848 7.308-7.848a9.3 9.3 0 0 1 6.444 2.844l3.528-4.068a13 13 0 0 0-9.936-3.888A12.808 12.808 0 0 0 115.64 20.4v.072a12.72 12.72 0 0 0 12.924 12.96zM141.416 33h5.544V7.8h-5.544zm9.684 0h19.188v-4.932h-13.68v-5.292h11.88v-4.932h-11.88v-5.112h13.5V7.8H151.1zm36.468 0h5.544V12.912h7.668V7.8H179.9v5.112h7.668zm15.3 0h5.544v-8.064h4.356l5.4 8.064h6.48l-6.156-9a7.826 7.826 0 0 0 5.4-7.812v-.072a7.91 7.91 0 0 0-2.16-5.76c-1.656-1.656-4.14-2.556-7.344-2.556h-11.52zm5.544-12.96V12.8h5.508c2.7 0 4.356 1.224 4.356 3.6v.072c0 2.124-1.548 3.564-4.248 3.564zM224.576 33h5.652l2.3-5.652h10.656L245.492 33h5.8l-10.8-25.38h-5.112zm9.936-10.548l3.348-8.172 3.348 8.172zM253.016 33h5.472V16.98L270.692 33h4.716V7.8h-5.472v15.516L258.128 7.8h-5.112z"/></svg>